<svg xmlns="http://www.w3.org/2000/svg" xmlns:xlink="http://www.w3.org/1999/xlink" id="Layer_1" x="0" y="0" version="1.1" viewBox="0 0 1366 768" xml:space="preserve" style="enable-background:new 0 0 1366 768"><style type="text/css">.st0{fill:url(#SVGID_1_)}.st1{fill:url(#SVGID_2_)}.st2{fill:url(#SVGID_3_)}.st3{opacity:.66}.st4{fill:#3f3d56}.st5{fill:#ff6584}.st6{fill:#e5e5e5}.st7{fill:#fff}.st8{opacity:.61}.st9{fill:#f2f2f2}.st10{fill:#e6e6e6}.st11{fill:#ccc}</style><linearGradient id="SVGID_1_" x1="-3.135" x2="1375.974" y1="294.588" y2="294.588" gradientUnits="userSpaceOnUse"><stop offset="0" style="stop-color:#211d72"/><stop offset="1" style="stop-color:#0ff"/></linearGradient><path d="M-3.1-15.5L1376-13.7c-0.3,118.5-0.6,237-0.9,355.5c-22.5,27.8-60.5,66.8-117.4,89.9	c-90.3,36.5-143.3-1.4-235.9,8.2C856.9,456.9,853.5,595,719.4,604.3c-143.2,9.8-162.6-145.9-364.6-164.4	c-85.7-7.8-133.5,15.5-215.5-19.4C72.1,391.9,27.6,343.6,0.4,307.1C-0.7,199.5-1.9,92-3.1-15.5z" class="st0"/><linearGradient id="SVGID_2_" x1="-3.266" x2="1375.841" y1="256.012" y2="256.012" gradientUnits="userSpaceOnUse"><stop offset="0" style="stop-color:#3fa9f5"/><stop offset="1" style="stop-color:#aaf1ff"/></linearGradient><path d="M-3.3-25.2l1379.1,2.9c-1.4,26.9-3.1,67.4-3.8,116.9c-0.8,57.2,0.7,67.5-0.2,77.9c0,0-0.4,4-1.1,8	c-1.9,11.6-23.7,87.7-108,137.8c-6.3,3.8-30,17.5-75.6,30.6c-81.5,23.5-141.1,18.7-175.7,20.4c-153.1,7.4-166.9,158.8-298.2,167.5	C593.7,544.7,582.7,416,387.5,372.4c-107.7-24.1-139.4,7-220.1-36.8c-52-28.2-121.4-86-155.7-174.3C5.2,144.6,1.2,130-1.3,119.5	C-1.9,71.3-2.6,23-3.3-25.2z" class="st1"/><linearGradient id="SVGID_3_" x1="536.617" x2="536.617" y1="-733.617" y2="-733.617" gradientUnits="userSpaceOnUse"><stop offset="0" style="stop-color:#211d72"/><stop offset="1" style="stop-color:#0ff"/></linearGradient><path d="M536.6-733.6" class="st2"/><g class="st3"><rect width="59.3" height="57.7" x="255.6" y="655.3" class="st4"/><path d="M339.2,733.1H231.4v-97.8h107.8V733.1z M232,732.4h106.5v-96.5H232V732.4z" class="st4"/><path d="M487,598.2c-25.1,0-45.4-21.1-45.4-47.2s20.3-47.2,45.4-47.2c25.1,0,45.4,21.1,45.4,47.2c0,0,0,0,0,0 C532.4,577,512.1,598.2,487,598.2z M487,504.4c-24.7,0-44.7,20.8-44.7,46.5c0,25.7,20,46.5,44.7,46.5s44.7-20.8,44.7-46.5 C531.7,525.3,511.7,504.5,487,504.4L487,504.4z" class="st4"/><ellipse cx="485.6" cy="551" class="st4" rx="21.9" ry="22.7"/><polygon points="509.1 627.7 522.1 619.9 529.6 633.4 516.6 641.2" class="st5"/><polygon points="310.9 552 323.9 544.2 331.4 557.7 318.4 565.5" class="st4"/><polygon points="491 712.8 504 705 511.5 718.5 498.5 726.3" class="st6"/><rect width="10.8" height="11.3" x="279.9" y="678.6" class="st7"/><ellipse cx="485.6" cy="551" class="st7" rx="5.4" ry="5.6"/></g><g class="st8"><circle cx="519.6" cy="187" r="8.6" class="st9"/><circle cx="485.3" cy="187" r="8.6" class="st9"/><circle cx="451" cy="187" r="8.6" class="st9"/><circle cx="416.7" cy="187" r="8.6" class="st9"/><circle cx="519.6" cy="222.9" r="8.6" class="st9"/><circle cx="485.3" cy="222.9" r="8.6" class="st9"/><circle cx="451" cy="222.9" r="8.6" class="st9"/><circle cx="416.7" cy="222.9" r="8.6" class="st9"/><circle cx="519.6" cy="258.8" r="8.6" class="st9"/><circle cx="485.3" cy="258.8" r="8.6" class="st9"/><circle cx="451" cy="258.8" r="8.6" class="st9"/><circle cx="416.7" cy="258.8" r="8.6" class="st9"/><circle cx="519.6" cy="294.8" r="8.6" class="st9"/><circle cx="485.3" cy="294.8" r="8.6" class="st9"/><circle cx="451" cy="294.8" r="8.6" class="st9"/><circle cx="416.7" cy="294.8" r="8.6" class="st9"/><circle cx="519.6" cy="330.7" r="8.6" class="st9"/><circle cx="485.3" cy="330.7" r="8.6" class="st9"/><circle cx="451" cy="330.7" r="8.6" class="st9"/><circle cx="416.7" cy="330.7" r="8.6" class="st9"/><circle cx="519.6" cy="366.6" r="8.6" class="st9"/><circle cx="485.3" cy="366.6" r="8.6" class="st9"/><circle cx="451" cy="366.6" r="8.6" class="st9"/><circle cx="416.7" cy="366.6" r="8.6" class="st9"/><path d="M719.5,362.7V129.2c0-5.5,4.5-10,10-10h184.6c5.5,0,10,4.5,10,10v233.5c0,5.5-4.5,10-10,10H729.5 C723.9,372.7,719.5,368.2,719.5,362.7z M729.5,121.4c-4.3,0-7.8,3.5-7.8,7.8v233.5c0,4.3,3.5,7.8,7.8,7.8h184.6 c4.3,0,7.8-3.5,7.8-7.8V129.2c0-4.3-3.5-7.8-7.8-7.8H729.5z" class="st10"/><path d="M832.1,226.4v-47.9c0-2.8,2.2-5,5-5h40.6c2.8,0,5,2.2,5,5v47.9c0,2.8-2.2,5-5,5h-40.6 C834.4,231.4,832.1,229.2,832.1,226.4z" class="st7"/><path d="M753.2,248.6v-47.9c0-2.8,2.2-5,5-5h40.6c2.8,0,5,2.2,5,5v47.9c0,2.8-2.2,5-5,5h-40.6 C755.4,253.6,753.2,251.4,753.2,248.6z" class="st11"/><path d="M816.5,316.5v-47.9c0-2.8,2.2-5,5-5h40.6c2.8,0,5,2.2,5,5v47.9c0,2.8-2.2,5-5,5h-40.6 C818.8,321.5,816.5,319.2,816.5,316.5z" class="st5"/><circle cx="1126.4" cy="134.9" r="8.6" class="st9"/><circle cx="1126.4" cy="169.2" r="8.6" class="st9"/><circle cx="1126.4" cy="203.5" r="8.6" class="st9"/><circle cx="1126.4" cy="237.8" r="8.6" class="st9"/><circle cx="1090.5" cy="134.9" r="8.6" class="st9"/><circle cx="1090.5" cy="169.2" r="8.6" class="st9"/><circle cx="1090.5" cy="203.5" r="8.6" class="st9"/><circle cx="1090.5" cy="237.8" r="8.6" class="st9"/><circle cx="1054.6" cy="134.9" r="8.6" class="st9"/><circle cx="1054.6" cy="169.2" r="8.6" class="st9"/><circle cx="1054.6" cy="203.5" r="8.6" class="st9"/><circle cx="1054.6" cy="237.8" r="8.6" class="st9"/><circle cx="1018.6" cy="134.9" r="8.6" class="st9"/><circle cx="1018.6" cy="169.2" r="8.6" class="st9"/><circle cx="1018.6" cy="203.5" r="8.6" class="st9"/><circle cx="1018.6" cy="237.8" r="8.6" class="st9"/><circle cx="982.7" cy="134.9" r="8.6" class="st9"/><circle cx="982.7" cy="169.2" r="8.6" class="st9"/><circle cx="982.7" cy="203.5" r="8.6" class="st9"/><circle cx="982.7" cy="237.8" r="8.6" class="st9"/><circle cx="946.8" cy="134.9" r="8.6" class="st9"/><circle cx="946.8" cy="169.2" r="8.6" class="st9"/><circle cx="946.8" cy="203.5" r="8.6" class="st9"/><circle cx="946.8" cy="237.8" r="8.6" class="st9"/></g><g class="st3"><path id="bec063ed-0fa9-413a-bd83-d8526fa41b8c" d="M961,578.8l20.6-24.1l20.6-24.1l21.1,59.9l-31.2-5.8L961,578.8z" class="st7"/><rect id="aa6e6c0d-ca3b-4989-ae08-5d6fb21b7d28" width="66.6" height="66.6" x="949.3" y="668.9" class="st10" transform="matrix(0.943 -0.3329 0.3329 0.943 -177.705 367.168)"/><circle id="e644b8cb-fae5-4de8-b33a-50bfc45133bc" cx="844" cy="665.2" r="42.7" class="st7"/><path id="a646102d-3f95-413e-a731-a5030e030d8b" d="M898.4,605.2c-3.7,1.3-7.7-0.6-9-4.3s0.6-7.7,4.3-9 c3.7-1.3,7.7,0.6,9,4.3S902.1,603.9,898.4,605.2z M898,604.1c3.1-1.1,4.7-4.4,3.6-7.5c-1.1-3.1-4.4-4.7-7.5-3.6 c-3.1,1.1-4.7,4.4-3.6,7.5S895,605.2,898,604.1z" class="st11"/><path id="a7867f82-9da8-49b7-a62f-5fc2df52f7dd" d="M1034.7,621.6l-7.1,13.5l-13.5-7.1l7.1-13.5L1034.7,621.6z M1027.1,633.6l6-11.4l-11.4-6l-6,11.4L1027.1,633.6z" class="st11"/><path id="abfd432a-addf-48b7-a638-56871f84cdda" d="M913.6,755.6l-5.7,11l-11-5.7l5.7-11L913.6,755.6z M907.4,765.3 l4.9-9.3l-9.3-4.9l-4.9,9.3L907.4,765.3z" class="st11"/><path id="b4b6c2e3-9a65-466b-808f-faa311f7d0ed" d="M885.7,639.2c10.8,30.7-5.3,64.4-36,75.2 c-30.7,10.8-64.4-5.3-75.2-36c-10.8-30.7,5.3-64.4,36-75.2C841.2,592.4,874.9,608.5,885.7,639.2z M775.7,678 c10.6,30.1,43.6,45.9,73.7,35.2c30.1-10.6,45.9-43.6,35.2-73.7c-10.6-30.1-43.6-45.9-73.7-35.2C780.8,615,765.1,648,775.7,678 L775.7,678z" class="st4"/><rect id="f21400a3-3aa1-44f2-adc5-de8006399ef9" width="1.2" height="35.2" x="902.4" y="661.5" class="st4" transform="matrix(0.1083 -0.9941 0.9941 0.1083 130.0856 1503.1927)"/><rect id="fdf13e27-5b88-4b47-a548-6eba64ef8ea7" width="76.2" height="1.2" x="924.7" y="618.3" class="st4" transform="matrix(0.156 -0.9878 0.9878 0.156 201.2169 1473.3506)"/><path id="ec996080-b25c-43f9-95b1-17d83c771fa1" d="M997.2,641.7l28.6,81.1l-81.1,28.6l-28.6-81.1L997.2,641.7z M1024.4,722.1l-27.9-78.9l-78.9,27.9l27.9,78.9L1024.4,722.1z" class="st4"/><path id="e64eb5c0-2762-4bb4-99c9-e384d48b09ae" d="M994.8,507.3l29.6,83.9l-87.5-16.3L994.8,507.3z M1022.6,589.7 l-28.3-80.1l-55.2,64.5L1022.6,589.7z" class="st4"/><path id="a0fb9511-7a08-40c5-84ea-69c7b1520cf5" d="M1185.5,625.5c-0.2,0.2-4.7,5.7-16.3,11.2 c-10.6,5-29.4,10.8-58.6,10.3c-55.4-0.9-87,35.4-87.3,35.8l-1-0.9c0.1-0.1,8.1-9.4,23-18.5c19.7-12,42.4-18.2,65.4-17.8 c55.3,0.9,73.7-20.8,73.9-21L1185.5,625.5z" class="st4"/><circle id="f311804e-8539-4d4f-8733-0b334c90657a" cx="1036" cy="656.9" r="8.8" class="st7"/><circle id="a6573fda-74df-4cf8-bcdf-8c67e75bc2cf" cx="1109.1" cy="658.4" r="8.8" class="st7"/><path id="ecf71195-8595-47d1-9f0d-85506c4dd5f7" d="M1078.5,646.6c-3.7,1.3-7.7-0.6-9-4.3c-1.3-3.7,0.6-7.7,4.3-9 s7.7,0.6,9,4.3C1084.2,641.2,1082.2,645.3,1078.5,646.6z M1078.1,645.5c3.1-1.1,4.7-4.4,3.6-7.5s-4.4-4.7-7.5-3.6 c-3.1,1.1-4.7,4.4-3.6,7.5S1075.1,646.6,1078.1,645.5z" class="st11"/><path id="a4f0274e-f5b3-4a0e-a250-2f78ed178189" d="M1065,673.9c-3.7,1.3-7.7-0.6-9-4.3c-1.3-3.7,0.6-7.7,4.3-9 c3.7-1.3,7.7,0.6,9,4.3C1070.7,668.6,1068.7,672.6,1065,673.9z M1064.7,672.8c3.1-1.1,4.7-4.4,3.6-7.5s-4.4-4.7-7.5-3.6 c-3.1,1.1-4.7,4.4-3.6,7.5C1058.2,672.3,1061.6,673.9,1064.7,672.8z" class="st11"/></g></svg>